<svg width="24" height="20" viewBox="0 0 24 20" fill="none" xmlns="http://www.w3.org/2000/svg">
<path d="M23.626 4.2C23.426 3.8 22.726 3.9 22.226 3.8H21.126C21.226 3.4 21.426 3.2 21.626 2.8C21.726 2.4 21.926 2.1 21.826 1.5C21.926 1.3 22.026 1.1 22.126 0.899998C22.226 0.799998 22.326 0.400001 22.226 0.200001C22.126 7.59959e-07 21.926 0 21.626 0C21.526 0 21.426 0.0999985 21.426 0.0999985C21.026 0.499998 20.626 1.1 20.126 1.5H20.026C19.926 1.5 20.026 1.5 19.926 1.6C19.826 1.7 19.626 1.8 19.526 1.8C19.226 2 19.026 2.2 18.626 2.3C18.126 2.1 17.426 2 16.726 1.9C15.526 2 14.426 2.1 13.726 2.6C12.826 2.9 12.226 3.6 11.626 4.2C11.626 4.5 11.326 4.6 11.226 4.9C11.226 4.9 11.226 5 11.126 5C11.126 5.2 11.026 5.3 11.026 5.5C11.026 5.6 11.226 5.9 11.026 6C10.226 5.9 9.52601 5.4 8.92601 5C8.22601 4.6 7.42602 4.4 6.82602 3.9C6.12602 3.6 5.52601 3.1 5.02601 2.6C4.82601 2.3 4.52602 2.1 4.32602 1.7C3.92602 1.5 4.12602 0.799999 3.62602 0.799999C3.32602 0.799999 3.32601 1 3.22601 1.2C3.12601 1.4 2.82602 1.4 2.82602 1.7C2.82602 1.7 2.82601 1.8 2.72601 1.8C2.52601 2.9 2.22601 3.8 2.22601 5.1C2.32601 5.5 2.52602 5.8 2.82602 6.1C2.42602 6.2 2.12601 6.3 1.92601 6.6C1.82601 7.7 2.32602 8.2 2.62602 8.9C2.72602 9.3 3.02601 9.6 3.22601 9.9C3.22601 10.1 3.42601 10.2 3.52601 10.3C3.52601 10.4 3.62602 10.4 3.62602 10.5C3.62602 10.6 3.92601 10.7 3.72601 10.7C3.32601 10.8 2.72601 10.8 2.42601 11.1C2.32601 11.4 2.32601 11.9 2.42601 12.2C2.42601 12.4 2.72601 12.5 2.72601 12.7C3.22601 13.1 3.82602 13.4 4.32602 13.8C4.92602 14 5.52601 14.1 6.22601 14.2C6.12601 14.5 5.92602 14.8 5.62602 14.9C4.82601 15.3 3.82601 15.4 2.92601 15.6C2.32601 15.6 1.92602 15.8 1.32602 15.8C1.02602 15.9 0.426014 15.9 0.226014 16C0.126014 16.1 0.126013 16.1 0.0260128 16.2C-0.0739872 16.6 0.126014 16.9 0.426014 17.1C0.426014 17.4 0.626016 17.4 0.826016 17.5C0.926016 17.7 1.12601 17.8 1.22601 17.9C1.72601 18.4 2.52602 18.7 3.12602 19C3.92602 19.2 4.72602 19.4 5.62602 19.5C6.52602 19.6 7.52601 19.6 8.42601 19.7H9.42601C9.92601 19.8 10.626 19.8 11.326 19.8C11.426 19.7 11.626 19.7 11.826 19.7C12.326 19.4 13.026 19.3 13.426 19C14.026 18.8 14.426 18.4 15.026 18.1C15.926 17.3 16.926 16.8 17.526 15.7C17.726 15.5 17.926 15.3 17.926 15C18.226 14.8 18.326 14.5 18.526 14.3C18.926 13.9 19.226 13.4 19.526 12.9C19.826 12.4 20.126 11.8 20.426 11.3C20.426 10.9 20.726 10.8 20.726 10.4C20.926 10.2 20.926 9.7 21.126 9.5C21.126 9.2 21.126 9.1 21.226 8.9C21.226 7.6 21.226 6.5 20.926 5.5C21.526 5.3 22.126 5.2 22.526 4.9C23.326 5.2 23.826 4.8 23.626 4.2ZM20.226 8.2C20.026 9.1 19.626 9.6 19.226 10.2C19.326 10.6 19.126 10.7 19.126 11.1C18.926 11.4 18.826 11.8 18.726 12.1C18.526 12.4 18.426 12.7 18.226 13C17.826 13.5 17.426 14.1 17.026 14.6C16.626 15.2 16.126 15.6 15.726 16.1C15.326 16.6 14.826 17 14.326 17.4C13.826 17.6 13.426 17.8 13.026 18.1C12.826 18.2 12.526 18.3 12.326 18.4C12.126 18.5 11.826 18.5 11.626 18.7C10.526 18.8 9.32601 18.9 8.02601 18.8C7.02601 18.7 5.92601 18.6 5.02601 18.4C4.12601 18.2 3.52601 17.7 2.72601 17.4C2.92601 17.2 3.32601 17.2 3.72601 17.2C3.72601 17 4.12602 17.2 4.12602 17.1C4.42602 17.2 4.42602 17 4.62602 17C5.22602 16.8 5.82602 16.7 6.32602 16.4C6.62602 16.3 6.72601 16 7.02601 15.8C7.02601 15.6 7.12601 15.5 7.22601 15.4C7.22601 15.1 7.42602 15 7.32602 14.6C7.42602 14.4 7.62602 14.3 7.62602 13.9C7.52602 13.8 7.52602 13.6 7.32602 13.5C7.32602 13.3 6.92601 13.4 6.92601 13.3C6.62601 13.3 6.52602 13.3 6.32602 13.2C6.12602 13.2 5.82602 13.3 5.82602 13.1C5.02602 13.1 4.52601 12.7 3.92601 12.4C4.32601 12.1 4.92601 12 5.22601 11.7C5.72601 11.6 6.32602 11.6 6.32602 11C6.32602 10.3 5.52601 10.3 5.02601 10.2C4.22601 9.5 3.82601 8.5 3.22601 7.7C3.42601 7.5 3.82601 7.5 3.92601 7.3C4.42601 7.4 4.42602 7 4.62602 6.8C4.62602 6.3 4.32601 6.2 4.02601 6C3.72601 5.8 3.52602 5.5 3.32602 5.3C3.32602 4.5 3.32601 3.6 3.42601 2.9C3.52601 2.9 3.52601 2.9 3.52601 3C3.72601 3.4 4.12602 3.8 4.32602 4.2C4.82602 4.6 5.22601 5.1 5.92601 5.3C6.42601 5.7 7.02601 5.9 7.52601 6.3C8.12601 6.6 8.72601 6.9 9.22601 7.2C9.92601 7.4 10.326 7.9 11.226 7.8C11.426 7.7 11.626 7.6 11.826 7.5C12.126 7 11.726 6.4 11.926 5.9C12.226 5.2 12.726 4.9 13.226 4.4C13.526 4.2 13.826 4.1 14.026 3.9C14.326 3.8 14.726 3.7 15.026 3.5C15.426 3.5 15.726 3.4 16.026 3.4H17.326C17.526 3.5 17.826 3.5 18.026 3.5C18.226 3.6 18.426 3.8 18.726 3.9C19.526 4.6 20.026 5.6 20.126 6.9C20.126 7.2 20.226 7.6 20.226 8.2ZM20.526 2.6C20.426 2.9 20.326 3.3 19.926 3.4C19.926 3.3 19.826 3.3 19.826 3.2C19.826 3 20.026 3 20.126 2.9C20.226 2.8 20.326 2.6 20.526 2.6C20.526 2.5 20.626 2.6 20.526 2.6ZM15.026 5.6C15.226 5.7 15.326 5.9 15.526 6C15.626 6.2 15.826 6.3 16.126 6.4C16.126 6.2 16.426 6.4 16.526 6.2C16.726 6.2 16.726 6 16.826 5.9C16.826 5.4 16.726 4.9 16.426 4.6C15.726 4.1 14.726 4.6 15.026 5.6Z" fill="black"/>
</svg>
