<svg width="15" height="29" viewBox="0 0 15 29" fill="none" xmlns="http://www.w3.org/2000/svg">
<path d="M11.7035 5.44251C12.7024 5.44251 13.7014 5.44251 14.4006 5.13003C14.8002 4.29672 15 3.15093 15 2.00514C14.8002 2.00514 14.9001 1.69265 14.8002 1.58849C14.8002 1.38016 14.5005 1.38016 14.5005 1.17183C14.2009 0.963506 14.0011 0.755182 13.8013 0.546856C13.102 0.33853 12.4028 0.234367 11.6036 0.0260415C10.8045 0.0260415 9.70565 -0.078123 9.00639 0.130203C6.40916 0.130203 5.01066 1.276 3.71204 2.63011C3.71204 2.73428 3.71204 2.83844 3.61215 2.83844C3.01278 4.50505 3.51225 6.5883 3.41236 8.67156C3.51225 9.08821 3.51225 9.71319 3.61215 10.1298C2.61321 10.4423 1.41449 10.5465 0.21577 10.6507C-0.08391 10.9631 0.0159827 11.7965 0.0159827 12.4214C0.115876 13.0464 0.315665 13.5672 0.415558 14.088C0.615345 14.2964 1.01492 14.5047 1.2147 14.6089C1.3146 14.6089 1.3146 14.713 1.3146 14.713C1.81406 15.0255 2.813 14.713 3.61215 14.8172C3.51225 16.9004 3.91183 18.8795 3.61215 20.7545C3.61215 21.067 3.91183 21.1711 3.81193 21.5878C3.81193 22.6294 3.71204 23.671 4.01172 24.4002C3.71204 24.921 3.51225 25.4418 3.61215 26.2751C3.71204 26.2751 3.71204 26.4834 3.71204 26.5876C3.61215 27.1084 4.3114 26.7959 4.21151 27.3167C4.4113 27.8375 3.81193 27.525 3.81193 27.8375V28.775C4.3114 29.0875 5.31033 28.9833 6.10948 28.9833C7.00852 28.5667 8.30714 28.4625 8.9065 27.7334C9.40597 27.9417 9.80554 27.7334 10.1052 27.5251C10.1052 27.2126 10.4049 27.2126 10.305 26.7959C10.305 26.4834 10.1052 26.2751 10.2051 25.8584V22.8377C10.0053 20.442 10.2051 17.7337 9.90544 15.338C10.8045 15.2338 11.8034 15.2338 12.5027 14.9213C12.9022 14.4005 12.9022 13.6714 13.0021 12.9422C13.2019 12.7339 13.2019 12.3173 13.2019 11.9006C13.4017 11.6923 13.3018 11.1715 13.3018 10.7548C13.2019 10.1298 13.102 9.40071 12.5027 9.29654C11.6036 9.08822 10.5048 9.92152 9.50586 9.60903C9.50586 8.46324 9.20618 7.21328 9.50586 6.06749C10.305 5.85916 11.0043 5.65084 11.7035 5.44251ZM7.90757 10.4423C8.00746 10.7548 8.20725 10.9631 8.30714 11.1715C8.40704 11.1715 8.50693 11.1715 8.50693 11.2756C9.70565 11.3798 10.7046 11.1715 11.6036 10.9631C11.6036 12.0048 11.3039 12.7339 11.1042 13.5672C10.4049 13.5672 9.60575 13.8797 9.10629 13.7755C8.80661 13.9839 8.70671 14.2964 8.50693 14.5047C8.50693 14.9213 8.60682 15.0255 8.50693 15.338C8.30714 15.4422 8.40704 15.963 8.30714 16.1713V17.7337C8.40704 18.0462 8.20724 18.0462 8.20724 18.2546V21.9003C8.10735 22.2127 8.30714 22.2127 8.30714 22.4211V25.546C8.40704 25.8584 8.20725 26.3793 8.40703 26.4834C8.30714 26.9001 8.00746 26.4834 7.60788 26.5876C7.10842 26.6917 6.70884 27.0042 6.10948 27.0042C6.20938 26.5876 6.40916 26.3793 6.40916 25.8584C6.40916 25.4418 6.00959 25.546 5.9097 25.3376C6.10948 24.7127 6.50906 24.1918 6.60895 23.4627C6.80874 22.9419 7.30821 22.1086 6.90863 21.5878C6.40916 21.4836 6.40916 21.9003 6.10948 22.0044C6.10948 22.1086 6.10948 22.2127 6.00959 22.2127C6.00959 22.3169 6.00959 22.4211 5.9097 22.4211C5.9097 22.5252 5.70991 22.5252 5.9097 22.4211C5.9097 22.3169 5.9097 22.2127 6.00959 22.2127C6.00959 22.1086 6.00959 22.0044 6.10948 22.0044V21.6919C6.50906 21.067 6.80874 20.442 6.90863 19.6087C7.10842 19.2962 7.20831 18.8795 7.3082 18.567C7.50799 18.2546 7.60789 17.6296 7.4081 17.3171C6.90863 17.3171 6.60895 17.6296 6.50906 18.0462C6.20938 17.8379 6.70884 17.6296 6.60895 17.3171C6.70884 17.1088 6.80874 16.6921 6.90863 16.4838C7.10842 16.0671 7.50799 15.1297 6.90863 14.8172C6.50906 14.8172 6.30927 15.0255 6.20938 15.338C6.00959 15.5463 5.8098 15.7546 5.70991 16.0671C5.31034 15.963 5.61002 15.338 5.51012 14.9213C5.41023 14.4005 5.61002 13.9839 5.51012 13.6714C4.91076 12.8381 3.51225 13.5672 2.31353 13.3589C2.21364 13.0464 2.11375 12.3173 2.21364 12.1089C3.21257 12.0048 4.71098 12.3173 5.41023 11.9006C5.41023 11.7965 5.41023 11.6923 5.51012 11.6923C5.61002 10.9631 5.21044 10.6507 5.01066 10.234C5.21044 9.4007 5.01065 8.15075 5.11055 7.10912C5.31033 7.00496 5.41023 6.69247 5.61001 6.48414C5.70991 5.44251 6.30927 4.9217 6.30927 3.88007C6.00959 3.88007 5.70991 3.77591 5.70991 4.0884C5.41023 3.98423 5.31034 4.60921 5.21044 4.29672C5.11055 3.7759 5.41023 3.67174 5.51012 3.25509C6.10948 2.83844 6.70885 2.42179 7.4081 2.00514C9.10629 1.79681 12.0032 1.58848 13.5016 2.21346C13.6015 2.83844 13.2019 3.15093 13.3018 3.77591H11.8034C10.7046 3.98423 9.80554 4.50505 8.80661 4.81753C8.60682 4.9217 8.50693 5.13002 8.30714 5.23419C8.30714 5.65084 8.10735 5.85916 8.00746 6.27582C7.70778 7.7341 7.90757 8.98405 7.90757 10.4423Z" fill="black"/>
</svg>
